<svg xmlns="http://www.w3.org/2000/svg" xmlns:xlink="http://www.w3.org/1999/xlink" version="1.1" x="0px" y="0px" viewBox="0 0 100 125" enable-background="new 0 0 100 100" xml:space="preserve"><g><g><g><path d="M3.264,77.84c-0.447,0-0.89-0.199-1.186-0.579c-0.508-0.654-0.39-1.597,0.264-2.105     c0.83-0.645,20.43-15.854,29.724-20.923c5.444-2.969,11.975-5.284,18.291-7.522c7.242-2.566,14.082-4.99,19.03-8.218     c11.198-7.303,23.287-20.615,23.408-20.748c0.556-0.615,1.503-0.663,2.119-0.107c0.615,0.556,0.663,1.504,0.107,2.119     c-0.503,0.557-12.466,13.73-23.995,21.249c-5.248,3.423-12.251,5.905-19.667,8.533c-6.206,2.199-12.623,4.474-17.857,7.328     c-9.082,4.953-29.118,20.502-29.32,20.658C3.91,77.737,3.586,77.84,3.264,77.84z"/></g><g><path d="M19.48,64.534c-0.024,0-0.048-0.001-0.072-0.002c-0.828-0.039-1.466-0.742-1.427-1.569l1.455-30.562     c0.04-0.828,0.73-1.464,1.57-1.427c0.828,0.04,1.466,0.742,1.427,1.57l-1.455,30.562C20.939,63.909,20.276,64.534,19.48,64.534z"/></g><g><path d="M29.46,58.297c-0.026,0-0.053-0.001-0.079-0.002c-0.827-0.043-1.463-0.748-1.42-1.576l1.455-28.066     c0.043-0.828,0.752-1.464,1.576-1.42c0.827,0.043,1.463,0.749,1.42,1.576l-1.455,28.067     C30.916,57.676,30.253,58.297,29.46,58.297z"/></g><g><path d="M36.945,54.555c-0.027,0-0.055-0.001-0.083-0.002c-0.828-0.045-1.461-0.752-1.417-1.579l1.455-26.82     c0.044-0.828,0.762-1.476,1.579-1.417c0.828,0.044,1.461,0.751,1.417,1.579l-1.455,26.82     C38.398,53.936,37.736,54.555,36.945,54.555z"/></g><g><path d="M45.677,50.812c-0.032,0-0.063-0.001-0.096-0.003c-0.827-0.052-1.455-0.765-1.403-1.591l1.455-23.078     c0.053-0.827,0.763-1.453,1.591-1.403c0.827,0.052,1.455,0.765,1.403,1.591l-1.455,23.078     C47.122,50.202,46.462,50.812,45.677,50.812z"/></g><g><path d="M54.409,47.07c-0.036,0-0.071-0.001-0.107-0.004c-0.826-0.058-1.449-0.775-1.39-1.602l1.455-20.583     c0.058-0.826,0.771-1.458,1.602-1.39c0.826,0.058,1.449,0.775,1.39,1.602l-1.455,20.583C55.848,46.466,55.189,47.07,54.409,47.07     z"/></g><g><path d="M63.141,44.575c-0.038,0-0.076-0.001-0.114-0.004c-0.826-0.062-1.445-0.782-1.383-1.608l1.455-19.335     c0.062-0.826,0.774-1.446,1.608-1.383c0.826,0.062,1.445,0.782,1.383,1.608l-1.455,19.335     C64.576,43.976,63.918,44.575,63.141,44.575z"/></g><g><path d="M73.119,38c-0.008,0-0.016,0-0.024,0c-0.828,0-1.489-0.526-1.476-1.355l0.208-13.013c0.013-0.829,0.66-1.442,1.524-1.434     c0.828,0.013,1.489,0.716,1.476,1.545l-0.208,12.939C74.605,37.502,73.937,38,73.119,38z"/></g><g><path d="M80.604,33c-0.01,0-0.02,0-0.03,0c-0.828,0-1.487-0.526-1.47-1.354l0.208-10.516c0.016-0.828,0.735-1.459,1.529-1.427     c0.828,0.016,1.487,0.722,1.47,1.55l-0.208,10.44C82.087,32.511,81.418,33,80.604,33z"/></g><g><path d="M88.002,25.833c-0.117,0-0.235-0.014-0.354-0.042c-0.805-0.195-1.3-1.006-1.105-1.811l1.939-8.013     c0.195-0.805,1.003-1.301,1.811-1.105c0.805,0.195,1.3,1.006,1.105,1.811l-1.939,8.013     C89.292,25.373,88.679,25.833,88.002,25.833z"/></g><g><path d="M49.833,81.167c-0.325,0-0.652-0.105-0.927-0.321L25.413,62.342c-0.651-0.513-0.763-1.456-0.25-2.106     c0.512-0.651,1.456-0.762,2.106-0.251l23.493,18.504c0.651,0.513,0.763,1.456,0.25,2.106     C50.716,80.971,50.277,81.167,49.833,81.167z"/></g><g><path d="M58.565,76.178c-0.325,0-0.652-0.105-0.927-0.321L34.145,57.352c-0.651-0.513-0.763-1.456-0.25-2.106     c0.512-0.651,1.456-0.762,2.106-0.251l23.493,18.505c0.651,0.513,0.763,1.456,0.25,2.106     C59.448,75.981,59.009,76.178,58.565,76.178z"/></g><g><path d="M64.594,70.147c-0.323,0-0.647-0.104-0.921-0.317l-20.79-16.217c-0.653-0.51-0.77-1.452-0.26-2.105     c0.509-0.652,1.453-0.769,2.105-0.26l20.79,16.217c0.653,0.51,0.77,1.452,0.26,2.105C65.482,69.949,65.04,70.147,64.594,70.147z"/></g><g><path d="M70.416,64.327c-0.326,0-0.654-0.105-0.929-0.323l-17.88-14.139c-0.65-0.514-0.76-1.458-0.247-2.107     c0.514-0.649,1.457-0.76,2.107-0.247l17.88,14.139c0.65,0.514,0.76,1.457,0.247,2.107C71.297,64.132,70.858,64.327,70.416,64.327     z"/></g><g><path d="M76.029,58.713c-0.318,0-0.639-0.101-0.911-0.31L59.109,46.137c-0.658-0.503-0.782-1.445-0.278-2.103     c0.503-0.659,1.446-0.784,2.103-0.278l16.009,12.267c0.658,0.504,0.782,1.445,0.278,2.103     C76.925,58.511,76.479,58.713,76.029,58.713z"/></g><g><path d="M83.721,52.061c-0.304,0-0.612-0.093-0.877-0.284l-13.514-9.773c-0.671-0.485-0.822-1.423-0.336-2.094     c0.484-0.671,1.422-0.823,2.094-0.336l13.514,9.772c0.671,0.485,0.822,1.423,0.336,2.094     C84.645,51.845,84.186,52.061,83.721,52.061z"/></g><g><path d="M90.789,45.823c-0.298,0-0.599-0.088-0.861-0.273l-13.306-9.356c-0.678-0.477-0.841-1.412-0.364-2.09     c0.477-0.677,1.413-0.84,2.09-0.364l13.306,9.356c0.678,0.477,0.841,1.412,0.364,2.09C91.726,45.601,91.261,45.823,90.789,45.823     z"/></g><g><path d="M93.701,37.091c-0.308,0-0.619-0.094-0.886-0.291l-8.535-6.257c-0.668-0.49-0.813-1.428-0.323-2.096     s1.43-0.812,2.096-0.323l8.535,6.257c0.668,0.49,0.813,1.428,0.323,2.096C94.618,36.878,94.162,37.091,93.701,37.091z"/></g><g><path d="M96.404,28c-0.001,0-0.003,0-0.005,0l-8.57-0.264c-0.828-0.002-1.498-0.544-1.495-1.373     c0.002-0.827,0.674-1.363,1.5-1.363c0.001,0,0.003,0,0.005,0l8.57-0.223c0.828,0.002,1.498,0.788,1.495,1.616     C97.901,27.22,97.23,28,96.404,28z"/></g></g></g><text x="0" y="115" fill="#000000" font-size="5px" font-weight="bold" font-family="'Helvetica Neue', Helvetica, Arial-Unicode, Arial, Sans-serif">Created by Alba de la Herrán</text><text x="0" y="120" fill="#000000" font-size="5px" font-weight="bold" font-family="'Helvetica Neue', Helvetica, Arial-Unicode, Arial, Sans-serif">from the Noun Project</text></svg>