<svg xmlns="http://www.w3.org/2000/svg" data-name="Layer 2" viewBox="0 0 512 640" x="0px" y="0px"><title>fossil dinosaur bone extinct museum</title><path d="M178,228.35q-1.92,0-3.72.18a53.66,53.66,0,0,0-12.91-20,13.29,13.29,0,0,0-13.65-2.84,13.53,13.53,0,0,0-8.91,11.06,149.9,149.9,0,0,1-3.67,19,72.78,72.78,0,0,1-2.29,7.11c-4.78,12.85-19.42,57.87-7.11,97.85a4.2,4.2,0,1,0,8-2.47c-11.53-37.45,2.41-80.23,7-92.45a80,80,0,0,0,2.54-7.91,157.47,157.47,0,0,0,3.88-20.06,5.08,5.08,0,0,1,3.41-4.22,4.81,4.81,0,0,1,5.05,1c15.47,14.62,15.7,41.19,15.67,44.19-.91,4.65-5.4,8.3-9,10.57a25.91,25.91,0,0,0-12,17.22c-6.06,33,3.41,64.19,12.42,84.57a3,3,0,0,1-1,3.7,2.8,2.8,0,0,1-3.68,0,73.49,73.49,0,0,1-13.41-14.31,4.2,4.2,0,1,0-6.85,4.87,82.23,82.23,0,0,0,14.94,15.94,11.44,11.44,0,0,0,17.65-13.55c-8.53-19.29-17.51-48.77-11.84-79.65a17.54,17.54,0,0,1,8.13-11.61c7.45-4.62,11.93-10.37,13-16.61a3.41,3.41,0,0,0,.05-.55,88.08,88.08,0,0,0-2.77-22.55l1,0a28.79,28.79,0,0,1,20.55,9.35c27.86,29.9,29.57,67.19,26.11,93.21a2.11,2.11,0,0,1-4.15.17c-4.37-19-12.48-35.32-24.1-48.58a4.2,4.2,0,1,0-6.31,5.54c10.7,12.2,18.17,27.32,22.22,44.92a10.4,10.4,0,0,0,10.23,8.18h.52a10.37,10.37,0,0,0,9.91-9.11c3.71-27.81,1.81-67.74-28.29-100A37.21,37.21,0,0,0,178,228.35Z"/><path d="M436,196a19.18,19.18,0,0,0-7,2.2,65.5,65.5,0,0,1-9.4,4.13c-3.71-8.21-9.47-18.92-17.05-26.84a7.9,7.9,0,0,0-9.06-1.92,8.45,8.45,0,0,0-4.73,8.72,131.34,131.34,0,0,1,.62,13.79,4.21,4.21,0,0,0,4.16,4.24h0a4.2,4.2,0,0,0,4.2-4.16,140.09,140.09,0,0,0-.61-14.13c6.11,6.66,11,15.49,14.27,22.63-2.05.46-4.23.86-6.52,1.15a60,60,0,0,1-31.38-4.68,334,334,0,0,0-32.36-12,4.2,4.2,0,0,0-2.49,8,325.51,325.51,0,0,1,31.52,11.72,68.37,68.37,0,0,0,35.77,5.3,78.65,78.65,0,0,0,27-8.56,10.93,10.93,0,0,1,13.11,2.08,10.63,10.63,0,0,1,2.84,9.15l-.12.74A26.27,26.27,0,0,1,424.67,239l-35.93,2.37a104,104,0,0,0-25.19,4.86c-3.82,1.24-7.65,2.52-11.35,3.76-27.78,9.35-58.46,5.43-82.09-10.48-6.95-4.68-12.3-9.66-15.89-14.79A35.48,35.48,0,0,1,248,204.07c1.26.17,2.55.31,3.88.41h0q3,.24,6,.24a83,83,0,0,0,44.39-13.19,157,157,0,0,0,14.79-10.73,56,56,0,0,1,16.78-9.53c34.77-12.22,84.08-15.73,84.6-15.76a33.2,33.2,0,0,0,13.93-4.2c-.83,6.45-2.51,14.4-5.94,21.11-.85-2.85-1.78-5.6-2.78-8.18a4.2,4.2,0,1,0-7.83,3c1,2.51,1.87,5.21,2.69,8a8.15,8.15,0,0,0,7.05,5.84,7.86,7.86,0,0,0,.83,0,8.15,8.15,0,0,0,7.22-4.35c5.95-11.26,7.45-25.31,7.81-32.69h0a58,58,0,0,0,10.7-16.91,36,36,0,0,0,2.95-13.74,38.57,38.57,0,0,0-6-21.39A31.69,31.69,0,0,0,421.65,77.7c-16,.39-34-1.11-46.31-2.43a117.09,117.09,0,0,1-21.25-4.44A112,112,0,0,0,322,66.24c-29.22.45-52.87,9.38-70.27,26.54a86.15,86.15,0,0,0-25.14,56.61l-1.67,28.69A24.51,24.51,0,0,0,239.61,202a44.85,44.85,0,0,0,7.73,27.49c4.19,6,10.27,11.68,18.08,16.94a100.82,100.82,0,0,0,56.26,16.9,104.21,104.21,0,0,0,33.2-5.43c3.67-1.24,7.48-2.5,11.27-3.73a95.12,95.12,0,0,1,23.15-4.47l35.92-2.37a34.67,34.67,0,0,0,31.92-28.28l.15-.89a19,19,0,0,0-5.05-16.3A19.21,19.21,0,0,0,436,196ZM233.29,178.56,235,149.88a77.76,77.76,0,0,1,22.66-51.12c15.81-15.59,37.51-23.71,64.56-24.12a105.14,105.14,0,0,1,29.49,4.23,124.93,124.93,0,0,0,22.77,4.75c12.56,1.35,31,2.88,47.41,2.48A23.2,23.2,0,0,1,442,96.58a30.39,30.39,0,0,1,4.71,16.83,27.61,27.61,0,0,1-2.3,10.53c-3.45,8.18-11.49,22.06-26.54,23.19-2.07.14-50.92,3.61-86.79,16.22a64.39,64.39,0,0,0-19.3,10.94,150,150,0,0,1-14,10.16,73.84,73.84,0,0,1-45.24,11.66,58.38,58.38,0,0,1-6.58-.87A16,16,0,0,1,233.29,178.56Z"/><path d="M275.4,175.75a17.73,17.73,0,0,0,2.61-.19l.56-.09A28.44,28.44,0,0,0,302.16,149c.56-10.43,0-24.95-5.85-34.88a16.51,16.51,0,0,0-11.83-8,16.73,16.73,0,0,0-13.84,4.2c-5.79,5.28-9.36,11.47-10.33,17.89a4.2,4.2,0,0,0,8.3,1.25c.69-4.56,3.27-8.91,7.69-12.94a8.35,8.35,0,0,1,6.93-2.09,8.11,8.11,0,0,1,5.84,3.92c5,8.56,5.11,22.58,4.71,30.18a20,20,0,0,1-16.55,18.64l-.44.07a9.22,9.22,0,0,1-7.86-2.57,9.42,9.42,0,0,1-2.8-8c.18-1.45.36-3,.54-4.51a4.2,4.2,0,0,0-8.35-1c-.17,1.52-.35,3-.53,4.44a17.79,17.79,0,0,0,5.27,15A17.61,17.61,0,0,0,275.4,175.75Z"/><path d="M324.22,143.94a21.61,21.61,0,0,0,12.46,4,21.39,21.39,0,0,0,7.42-1.32,42.71,42.71,0,0,0,4.49-2c1.66-.76,19.72-9.52,19.3-27.77a4.2,4.2,0,0,0-8.4.19c.31,13.11-14.29,19.9-14.43,20l-.17.08a35.58,35.58,0,0,1-3.68,1.61,13,13,0,0,1-12.14-1.62,13.23,13.23,0,0,1-5.66-11.1c.11-8.85,1.8-16.11,5-21.58a14.3,14.3,0,0,1,17.21-6,21.3,21.3,0,0,1,6.14,3.47,4.19,4.19,0,0,0,5.28-6.52,29.29,29.29,0,0,0-8.55-4.84,22.71,22.71,0,0,0-27.31,9.65c-4,6.76-6.09,15.42-6.22,25.76A21.82,21.82,0,0,0,324.22,143.94Z"/><path d="M404.24,126.25h3.68a4.2,4.2,0,0,0,0-8.4h-3.68a3.57,3.57,0,0,1-2.81-1.28,2.27,2.27,0,0,1-.45-1.95c1-3.84,3.33-6.05,7.46-7a16.08,16.08,0,0,1,8.55.42c5.37,1.8,5.66,4.93,5.3,7.46a2.14,2.14,0,0,1-.28.79,4.2,4.2,0,1,0,7.2,4.31,10.58,10.58,0,0,0,1.4-3.94c1.09-7.84-2.9-13.89-11-16.58a24.43,24.43,0,0,0-13-.66c-7.18,1.57-12.08,6.23-13.81,13.12a10.64,10.64,0,0,0,2,9.15A12,12,0,0,0,404.24,126.25Z"/><path d="M129.84,148.19a6.23,6.23,0,0,1-6.93,4.34,45.71,45.71,0,0,1-14.44-4.74,4.2,4.2,0,0,0-3.92,7.42,54.12,54.12,0,0,0,17.11,5.63,15.46,15.46,0,0,0,2.24.17,14.61,14.61,0,0,0,14-10.31,137.09,137.09,0,0,0,3.94-15.8,14.59,14.59,0,0,0-5.15-14,69.13,69.13,0,0,0-15.86-9.79,14.37,14.37,0,0,0-11.48,0,14.79,14.79,0,0,0-8,8.45,80.14,80.14,0,0,0-4,15.25,4.2,4.2,0,0,0,8.31,1.26,71.3,71.3,0,0,1,3.58-13.64,6.26,6.26,0,0,1,3.42-3.61,6.05,6.05,0,0,1,4.83,0,60.76,60.76,0,0,1,13.88,8.58,6.22,6.22,0,0,1,2.21,5.93A128.58,128.58,0,0,1,129.84,148.19Z"/><path d="M181.68,112.82h0c-10.29,1.06-17.62,6.81-20.12,15.76a10.82,10.82,0,0,0,1.3,8.75A21,21,0,0,0,181,147.25a25.17,25.17,0,0,0,2.85-.17,10.88,10.88,0,0,0,7.95-4.88c2.79-4.31,6.57-13.14.52-23.9A10.92,10.92,0,0,0,181.68,112.82Zm3.09,24.81a2.54,2.54,0,0,1-1.85,1.11c-7.08.8-11-2.78-13-5.93a2.49,2.49,0,0,1-.28-2c2-7.08,8.11-9.16,12.9-9.66a2.53,2.53,0,0,1,2.47,1.24C188.71,129,186.93,134.32,184.77,137.63Z"/><path d="M108.41,289.28a26.7,26.7,0,0,0-2.86-21A63.91,63.91,0,0,0,78.7,243.67a14.44,14.44,0,0,0-20.49,10.4c-3.13,16.83-7.13,52.35,1.23,101.2A102.47,102.47,0,0,0,79.24,401a4.2,4.2,0,1,0,6.65-5.12,94.18,94.18,0,0,1-18.17-42c-8.15-47.56-4.29-82-1.26-98.25a6,6,0,0,1,3.25-4.33,5.93,5.93,0,0,1,5.32,0,55.58,55.58,0,0,1,23.33,21.42,18.31,18.31,0,0,1,2,14.34c-7,24.71-18.15,87.58,28.67,137.63a2,2,0,0,1,.15,2.74,1.93,1.93,0,0,1-2.58.64,131.93,131.93,0,0,1-13.14-7.33,4.2,4.2,0,0,0-4.51,7.09,143.67,143.67,0,0,0,14,7.79,10.61,10.61,0,0,0,4.64,1.08,10.55,10.55,0,0,0,7.59-17.75C91.23,372,101.82,312.61,108.41,289.28Z"/><path d="M424.23,316.81c-5.57-4.67-13.25-5.76-18.34-5.9.41-5.68,0-14.71-5.52-20.67-4.42-4.79-11-6.62-19.48-5.45a19.49,19.49,0,0,0-14.28,8.69c-6.83,10.36-4.14,26.76-2.82,32.76-9.15,9.64-42.61,37.07-62.07,52.67-8.15-6.9-16.47-9.82-24.77-8.68a21.69,21.69,0,0,0-18.51,17,20.76,20.76,0,0,0,9.52,22.4c5.64,3.54,12.33,4.87,17,5.36a24.9,24.9,0,0,0,3.82,21.2,22.55,22.55,0,0,0,18.35,9.59,21.74,21.74,0,0,0,7.93-1.5A18.72,18.72,0,0,0,326,433.72c5.46-13.14-2.58-32-2.93-32.76a4.2,4.2,0,0,0-7.7,3.35c1.95,4.52,6.27,18,2.87,26.2a10.5,10.5,0,0,1-6.18,5.94,14.12,14.12,0,0,1-16.39-5.13c-3.78-5.32-4.12-11.57-1-18.57a4.2,4.2,0,0,0-4-5.9c-.11,0-10.76.34-18.22-4.34A12.56,12.56,0,0,1,266.65,389a13.21,13.21,0,0,1,11.43-10.44c6.58-.9,13.49,2.09,20.57,8.89a4.19,4.19,0,0,0,5.53.25c2.38-1.9,58.39-46.66,67.44-57.61a4.22,4.22,0,0,0,.81-3.79c-1.42-5.19-4-20.38,1.2-28.2a11.28,11.28,0,0,1,8.41-5c5.61-.78,9.7.17,12.15,2.81,4.5,4.85,3.55,15,2.8,18.44a4.2,4.2,0,0,0,4.61,5.06c.11,0,11.25-1.2,17.23,3.82a11,11,0,0,1,3.8,8.31,15.45,15.45,0,0,1-14.22,16.19c-7.16.64-13.24-1.22-18.08-5.53a4.19,4.19,0,0,0-5.49-.08L337.28,382a4.2,4.2,0,0,0,5.39,6.43l45-37.69a31.88,31.88,0,0,0,21.52,5.35,23.81,23.81,0,0,0,21.86-25C430.68,325.12,428.4,320.31,424.23,316.81Z"/><text x="0" y="527" fill="#000000" font-size="5px" font-weight="bold" font-family="'Helvetica Neue', Helvetica, Arial-Unicode, Arial, Sans-serif">Created by Maxicons</text><text x="0" y="532" fill="#000000" font-size="5px" font-weight="bold" font-family="'Helvetica Neue', Helvetica, Arial-Unicode, Arial, Sans-serif">from the Noun Project</text></svg>