<svg xmlns="http://www.w3.org/2000/svg" xmlns:xlink="http://www.w3.org/1999/xlink" version="1.1" x="0px" y="0px" viewBox="0 0 64 80" style="enable-background:new 0 0 64 64;" xml:space="preserve"><g><path d="M53.285,9.848C44.796,4.06,34.877,1,24.603,1c-4.529,0-8.871,1.392-12.557,4.024C6.382,9.07,3,15.642,3,22.603v11.274   c0,2.654-0.326,5.305-0.97,7.88C1.347,44.491,1,47.306,1,50.147C1,57.234,6.766,63,13.853,63c2.233,0,4.438-0.585,6.376-1.693   C22.869,59.798,25.873,59,28.915,59h2.716c2.704,0,5.411,0.639,7.829,1.848l1.018,0.509c2.15,1.075,4.557,1.643,6.96,1.643   C56.019,63,63,56.019,63,47.438V28.229C63,20.867,59.368,13.995,53.285,9.848z M61,47.438C61,54.916,54.916,61,47.438,61   c-2.095,0-4.191-0.495-6.065-1.432l-1.018-0.509C37.66,57.712,34.644,57,31.631,57h-2.716c-3.39,0-6.736,0.889-9.679,2.57   C17.601,60.506,15.738,61,13.853,61C7.868,61,3,56.131,3,50.123c0-2.654,0.326-5.305,0.97-7.88C4.653,39.509,5,36.694,5,33.877   V22.603c0-6.316,3.068-12.279,8.208-15.951C16.553,4.263,20.492,3,24.603,3c9.871,0,19.4,2.939,27.556,8.5   C57.694,15.274,61,21.528,61,28.229V47.438z"/><path d="M23,18.879c0-0.834-0.324-1.618-0.965-2.257C20.989,15.576,19.6,15,18.121,15C16.4,15,15,16.4,15,18.121   c0,0.834,0.324,1.618,0.965,2.257C17.011,21.424,18.4,22,19.879,22C21.6,22,23,20.6,23,18.879z M17,18.121   C17,17.503,17.503,17,18.121,17c0.944,0,1.832,0.368,2.551,1.086C20.884,18.298,21,18.579,21,18.879C21,19.497,20.497,20,19.879,20   c-0.944,0-1.832-0.368-2.551-1.086C17.116,18.702,17,18.421,17,18.121z"/><path d="M48.039,28.948l-0.416,0.555C46.92,30.44,45.801,31,44.629,31c-1.299,0-2.485-0.658-3.175-1.759l-1.766-2.826l0.88-1.173   c0.991-1.321,1.041-3.131,0.125-4.505C39.968,19.649,38.755,19,37.447,19h-3.2c-2.577-2.506-5.712-4.393-9.193-5.475   C23.666,11.979,21.66,11,19.425,11c-1.75,0-3.448,0.36-5.047,1.071C9.896,14.063,7,18.52,7,23.424v0.414C7,25.03,7.97,26,9.162,26   c0.932,0,1.757-0.594,2.051-1.479l0.395-1.183c0.128-0.379,0.732-0.423,0.911-0.066l1.33,2.66c0.1,0.198,0.151,0.419,0.151,0.64   C14,27.36,13.36,28,12.573,28H9.609C8.171,28,7,29.17,7,30.609V31c0,4.339,3.474,7.874,7.785,7.989   c0.763,0.644,1.564,1.231,2.391,1.777l-1.198,1.598C15.348,43.203,15,44.244,15,45.295c0,0.587,0.104,1.164,0.311,1.715   l2.346,6.253C18.046,54.302,19.054,55,20.162,55c0.838,0,1.638-0.4,2.141-1.07C24.042,51.611,25,48.737,25,45.838v-1.622   C27.01,44.72,29.083,45,31.186,45h1.666c0.06,0,0.119-0.007,0.178-0.007l1.495,2.491C35.086,48.419,36.111,49,37.202,49   c1.532,0,2.828-1.097,3.08-2.609l0.443-2.655c2.648-0.863,5.159-2.148,7.395-3.825c0.663-0.499,1.529-0.641,2.319-0.376L52,40.054   c2.008,0.669,4.193-0.345,4.979-2.309l3.386-8.466l-8.259-1.835C50.578,27.105,48.979,27.694,48.039,28.948z M51.317,34.699   l1.672-0.627l2.849,1.14l-0.654,1.635L51.317,34.699z M52.375,32.166l-1.278,0.479l1.322-3.084l1.637,0.364L52.375,32.166z    M37.447,21c0.637,0,1.229,0.316,1.582,0.847c0.446,0.669,0.422,1.552-0.061,2.195l-0.417,0.555l-0.818-1.309   c-0.503-0.805-1.068-1.559-1.66-2.289H37.447z M9,31v-0.391C9,30.273,9.273,30,9.609,30h2.964C14.463,30,16,28.462,16,26.573   c0-0.528-0.125-1.057-0.361-1.533l-1.331-2.662c-0.425-0.85-1.28-1.378-2.23-1.378c-1.074,0-2.025,0.685-2.366,1.705l-0.395,1.184   C9.266,24.041,8.999,23.998,9,23.838v-0.414c0-4.115,2.43-7.854,6.19-9.526C16.532,13.302,17.956,13,19.425,13   C22.499,13,25,15.501,25,18.576c0,2.042-0.599,4.019-1.731,5.719l-0.101,0.151l1.664,1.109l0.101-0.151   C26.285,23.375,27,21.014,27,18.576c0-0.811-0.131-1.591-0.368-2.323c0.34,0.149,0.683,0.293,1.013,0.459l0.674,1.573   c1.003,2.341,0.926,4.991-0.214,7.269l1.789,0.895c1.248-2.497,1.455-5.354,0.616-7.985c0.957,0.691,1.852,1.463,2.681,2.307   c0.365,1.255,0.032,2.593-0.899,3.523l1.414,1.414c0.737-0.737,1.233-1.64,1.472-2.604c0.297,0.407,0.591,0.816,0.86,1.246   l3.72,5.953c1.057,1.69,2.877,2.699,4.87,2.699c1.798,0,3.516-0.859,4.594-2.297l0.416-0.555c0.154-0.205,0.351-0.359,0.562-0.488   l-1.696,3.957l-2.19,0.821c-2.782,1.043-5.979,0.587-8.482-1.022l-11.291-7.258l-1.082,1.683l10.95,7.039   c-4.12-0.357-8.139-1.592-11.742-3.651l-0.171-0.098l-0.992,1.736l0.171,0.098c0.424,0.242,0.859,0.463,1.293,0.684   c-0.157,2.711-1.276,5.243-3.209,7.178l-0.119,0.119c-1.634-0.729-3.185-1.642-4.625-2.735C20.653,36.588,23,32.994,23,29h-2   c0,3.245-1.927,6.167-4.908,7.444l-1.29,0.552c-0.514-0.017-1.01-0.105-1.484-0.244c2.325-1.512,3.975-3.803,4.652-6.51   l-1.939-0.485c-0.581,2.321-2.029,4.276-4.08,5.506l-0.693,0.415C9.885,34.579,9,32.893,9,31z M36.473,42.709   c1.23-1.683,2.045-3.64,2.366-5.71c0.009,0,0.018,0.001,0.027,0.001h1.947c-0.368,1.99-1.282,3.855-2.633,5.37   C37.614,42.503,37.046,42.619,36.473,42.709z M23.637,41.73c1.816-2.016,2.948-4.502,3.264-7.176   c0.662,0.281,1.331,0.542,2.011,0.775c-0.296,2.454-1.394,4.74-3.154,6.5l-0.417,0.417C24.765,42.097,24.199,41.921,23.637,41.73z    M30.855,35.927c0.678,0.184,1.36,0.348,2.049,0.484c-0.31,2.423-1.405,4.677-3.146,6.418l-0.102,0.102   c-0.672-0.044-1.338-0.118-2-0.219C29.366,40.803,30.479,38.453,30.855,35.927z M34.88,36.738c0.647,0.085,1.296,0.149,1.948,0.192   c-0.395,2.225-1.462,4.291-3.07,5.898l-0.141,0.14C33.362,42.977,33.107,43,32.852,43h-0.601   C33.662,41.18,34.573,39.028,34.88,36.738z M23,45.838c0,2.469-0.815,4.917-2.297,6.891c-0.294,0.394-1.001,0.292-1.175-0.168   l-2.345-6.251C17.062,45.983,17,45.642,17,45.295c0-0.621,0.205-1.235,0.577-1.731l1.317-1.756   c0.035,0.019,0.071,0.038,0.106,0.057V47h2v-4.154c0.656,0.287,1.322,0.547,2,0.777V45.838z M38.31,46.062   C38.219,46.605,37.753,47,37.202,47c-0.393,0-0.761-0.209-0.963-0.545l-0.952-1.586c1.115-0.109,2.222-0.29,3.312-0.545   L38.31,46.062z M52.633,38.157l-1.561-0.52c-1.41-0.471-2.964-0.219-4.152,0.674c-1.712,1.284-3.605,2.306-5.594,3.077   c0.759-1.357,1.273-2.844,1.513-4.387H43v-0.008C43.074,36.993,43.147,37,43.221,37c1.302,0,2.579-0.232,3.797-0.688l1.842-0.691   l4.697,2.609C53.255,38.275,52.941,38.26,52.633,38.157z M56.581,33.356l-1.998-0.799l1.616-2.155l1.436,0.319L56.581,33.356z"/></g><text x="0" y="79" fill="#000000" font-size="5px" font-weight="bold" font-family="'Helvetica Neue', Helvetica, Arial-Unicode, Arial, Sans-serif">Created by Eucalyp</text><text x="0" y="84" fill="#000000" font-size="5px" font-weight="bold" font-family="'Helvetica Neue', Helvetica, Arial-Unicode, Arial, Sans-serif">from the Noun Project</text></svg>