<svg xmlns="http://www.w3.org/2000/svg" xmlns:xlink="http://www.w3.org/1999/xlink" version="1.1" x="0px" y="0px" viewBox="0 0 64 80" style="enable-background:new 0 0 64 64;" xml:space="preserve"><g><path d="M53.215,23.009c-6.451-2.587-12.428-6.154-17.774-10.61c-2.625-2.188-5.95-3.391-9.367-3.391c-0.007,0-0.015,0-0.022,0   l-0.194,0c-3.382,0.005-6.659,1.22-9.226,3.42l-0.158,0.135c-2.202,1.887-3.468,4.618-3.471,7.492   c-0.001,0.616-0.036,1.233-0.09,1.849c-1.839-1.05-3.266-2.785-3.874-4.91l-0.077-0.27l-1.922,0.551l0.076,0.269   c0.829,2.902,2.89,5.218,5.508,6.46c-0.328,1.751-0.864,3.464-1.606,5.073L7.93,35.765C7.321,37.084,7,38.548,7,40   c0,2.757,2.243,5,5,5s5-2.243,5-5c0-1.29-0.822-2.382-1.966-2.805c0.17-3.162,1.621-6.105,4.07-8.146   C20.309,28.045,21,26.569,21,25v1.586C21,27.917,22.083,29,23.414,29c0.486,0,0.962-0.152,1.36-0.423   c-0.458,3.831-1.635,7.58-3.483,10.967l-1.976,3.623C19.109,43.547,19,43.976,19,44.406C19,45.836,20.163,47,21.594,47h2.038   c1.842,0,3.498-1.023,4.322-2.671l2.584-5.169c0.188-0.375,0.435-0.718,0.731-1.015C32.008,37.406,32.989,37,34.032,37h13.452   C48.32,37,49,37.68,49,38.516c0,0.193-0.036,0.383-0.108,0.563l-1.7,4.251C47.064,43.648,47,43.982,47,44.323   C47,45.799,48.201,47,49.677,47h1.849c1.922,0,3.593-1.234,4.158-3.071l2.898-9.419C58.859,33.608,59,32.672,59,31.728v-0.234   c0-3.749-2.249-7.07-5.729-8.463L53.215,23.009z M57,31.494v0.234c0,0.745-0.111,1.482-0.33,2.194l-2.898,9.419   C53.467,44.333,52.563,45,51.525,45h-1.849C49.304,45,49,44.696,49,44.323c0-0.086,0.017-0.17,0.049-0.251l1.7-4.252   C50.916,39.402,51,38.963,51,38.516C51,36.577,49.423,35,47.484,35H34.032c-1.577,0-3.06,0.614-4.178,1.731   c-0.449,0.45-0.821,0.966-1.105,1.534l-2.584,5.17C25.682,44.4,24.711,45,23.632,45h-2.038C21.267,45,21,44.734,21,44.406   c0-0.099,0.025-0.198,0.072-0.284l1.975-3.62c2.347-4.303,3.69-9.15,3.91-14.045l0.336-0.336C28.394,25.021,29,23.557,29,22h-2   c0,1.022-0.398,1.984-1.121,2.707l-2.173,2.172C23.47,27.117,23,26.924,23,26.586V25c0-1.103-0.897-2-2-2s-2,0.897-2,2   c0,0.974-0.429,1.889-1.177,2.512c-2.901,2.418-4.611,5.912-4.788,9.661C11.856,37.578,11,38.685,11,40v1h2v-1c0-0.551,0.448-1,1-1   s1,0.449,1,1c0,1.654-1.346,3-3,3s-3-1.346-3-3c0-1.165,0.258-2.339,0.746-3.397l3.087-6.688c0.766-1.659,1.33-3.42,1.693-5.221   C15.324,24.893,16.153,25,17,25v-2c-0.74,0-1.462-0.104-2.155-0.293c0.101-0.881,0.156-1.766,0.157-2.65   c0.003-2.291,1.013-4.468,2.771-5.975l0.158-0.135c2.207-1.891,5.022-2.935,7.931-2.939l0.194,0c0.006,0,0.013,0,0.019,0   c2.949,0,5.819,1.039,8.095,2.935c5.515,4.595,11.69,8.278,18.357,10.945l0.039,0.016C55.261,25.999,57,28.581,57,31.494z"/><circle cx="22" cy="18" r="1"/><rect x="34.5" y="21.095" transform="matrix(0.7682 -0.6402 0.6402 0.7682 -7.7765 28.521)" width="2" height="7.81"/><rect x="41.5" y="23.095" transform="matrix(0.7682 -0.6402 0.6402 0.7682 -7.4344 33.4659)" width="2" height="7.81"/><rect x="49.5" y="27.095" transform="matrix(0.7682 -0.6402 0.6402 0.7682 -8.1409 39.5145)" width="2" height="7.81"/><path d="M15.061,51.525C14.109,52.476,12.845,53,11.5,53s-2.609-0.524-3.561-1.475l-0.232-0.232l-1.414,1.414l0.232,0.232   C7.854,54.268,9.621,55,11.5,55s3.646-0.732,4.975-2.061l0.232-0.232l-1.414-1.414L15.061,51.525z"/><path d="M31.061,49.525C30.109,50.476,28.845,51,27.5,51s-2.609-0.524-3.561-1.475l-0.232-0.232l-1.414,1.414l0.232,0.232   C23.854,52.268,25.621,53,27.5,53s3.646-0.732,4.975-2.061l0.232-0.232l-1.414-1.414L31.061,49.525z"/><path d="M44.773,43.643l0.059-0.088l-1.664-1.109l-0.059,0.088C42.08,44.078,40.356,45,38.5,45s-3.58-0.922-4.609-2.467   l-0.059-0.088l-1.664,1.109l0.059,0.088C33.628,45.745,35.974,47,38.5,47S43.372,45.745,44.773,43.643z"/><path d="M49.109,52.533C48.08,54.078,46.356,55,44.5,55s-3.58-0.922-4.609-2.467l-0.059-0.088l-1.664,1.109l0.059,0.088   C39.628,55.745,41.974,57,44.5,57s4.872-1.255,6.273-3.357l0.059-0.088l-1.664-1.109L49.109,52.533z"/><path d="M57,47.764C56.619,48.526,55.853,49,55,49s-1.619-0.474-2-1.236l-0.105-0.211l-1.789,0.895l0.105,0.21   C51.933,50.103,53.385,51,55,51s3.067-0.897,3.789-2.342l0.105-0.211l-1.789-0.895L57,47.764z"/><path d="M53.285,9.848C44.796,4.06,34.877,1,24.603,1c-4.529,0-8.871,1.392-12.557,4.024C6.382,9.07,3,15.642,3,22.603v11.274   c0,2.654-0.326,5.305-0.97,7.88C1.347,44.491,1,47.306,1,50.147C1,57.234,6.766,63,13.853,63c2.233,0,4.438-0.585,6.376-1.693   C22.869,59.798,25.873,59,28.915,59h2.716c2.704,0,5.411,0.639,7.829,1.848l1.018,0.509c2.15,1.075,4.557,1.643,6.96,1.643   C56.019,63,63,56.019,63,47.438V28.229C63,20.867,59.368,13.995,53.285,9.848z M61,47.438C61,54.916,54.916,61,47.438,61   c-2.095,0-4.191-0.495-6.065-1.432l-1.018-0.509C37.66,57.712,34.644,57,31.631,57h-2.716c-3.39,0-6.736,0.889-9.679,2.57   C17.601,60.506,15.738,61,13.853,61C7.868,61,3,56.131,3,50.123c0-2.654,0.326-5.305,0.97-7.88C4.653,39.509,5,36.694,5,33.877   V22.603c0-6.316,3.068-12.279,8.208-15.951C16.553,4.263,20.492,3,24.603,3c9.871,0,19.4,2.939,27.556,8.5   C57.694,15.274,61,21.528,61,28.229V47.438z"/></g><text x="0" y="79" fill="#000000" font-size="5px" font-weight="bold" font-family="'Helvetica Neue', Helvetica, Arial-Unicode, Arial, Sans-serif">Created by Eucalyp</text><text x="0" y="84" fill="#000000" font-size="5px" font-weight="bold" font-family="'Helvetica Neue', Helvetica, Arial-Unicode, Arial, Sans-serif">from the Noun Project</text></svg>