<svg xmlns="http://www.w3.org/2000/svg" data-name="Layer 2" viewBox="0 0 512 640" x="0px" y="0px"><title>fossil crustacean petrified shell</title><path d="M374.17,398.29c-2.7,2.48-5.55,4.91-8.46,7.22a157.79,157.79,0,0,1-58.25,28.86l-2.84-12.13a4.2,4.2,0,0,0-8.17,1.91l2.84,12.14a169.71,169.71,0,0,1-59.91,1.56C186.47,429.8,153,402,150.16,399.67l34.4-32a4.2,4.2,0,1,0-5.71-6.15l-35,32.51c-26.36-24.6-42.75-55.45-48.77-91.84l68.22-9.07a4.2,4.2,0,1,0-1.11-8.32l-72.46,9.63a4.2,4.2,0,0,0-3.61,4.72,4.57,4.57,0,0,0,.23.9,4.25,4.25,0,0,0,0,.94c6,39.22,23.22,72.41,51.31,98.77l-2.87,2.66a4.2,4.2,0,0,0,5.72,6.15l3.43-3.18.48.42c1.45,1.28,36.13,31.56,93.66,40.31a179.25,179.25,0,0,0,27,2,176.26,176.26,0,0,0,39.62-4.49l.6-.09c.18-.05.34-.12.51-.18a166.63,166.63,0,0,0,65.11-31.34c3.07-2.44,6.07-5,8.92-7.61a4.2,4.2,0,0,0-5.68-6.19Z"/><path d="M88.51,265.84a4.2,4.2,0,0,0,4.19-4A195.67,195.67,0,0,1,113.91,182l40.4,29.48a4.15,4.15,0,0,0,2.47.81,4.2,4.2,0,0,0,2.48-7.59l-41.33-30.17A198.49,198.49,0,0,1,173.2,112L194,144.64a4.2,4.2,0,0,0,3.55,2,4.14,4.14,0,0,0,2.25-.66,4.19,4.19,0,0,0,1.29-5.79L174.54,98.43a4.2,4.2,0,0,0-7.09,4.5l1.23,1.94A208.23,208.23,0,0,0,109.54,172c-.3.55-.59,1.11-.89,1.67,0,.09-.1.17-.14.26a205.25,205.25,0,0,0-24.2,87.49,4.2,4.2,0,0,0,4,4.38Z"/><path d="M409,226.06c-.05-.11-.09-.22-.15-.33a5,5,0,0,0-.33-.44c-11.95-19.17-31.83-38.71-64.91-50.39l18.13-73.19a29.61,29.61,0,0,0-26-36.61C315,63.21,283,62.46,248.27,69.61a205.22,205.22,0,0,0-52.68,18.6,4.2,4.2,0,1,0,3.85,7.47A196.52,196.52,0,0,1,250,77.83c3.89-.8,7.75-1.49,11.56-2.1l1.87,46.09a4.2,4.2,0,0,0,4.19,4h.17a4.2,4.2,0,0,0,4-4.36l-1.9-46.95a303,303,0,0,1,65-1.07A21.22,21.22,0,0,1,353.57,99.7l-18.06,72.91c-9.71-2.1-34.82-6.55-61.79-3.42l-.59-14.39a4.2,4.2,0,1,0-8.39.34l.62,15.27c-19.65,3.46-39.54,11.39-54.57,27.56a126.67,126.67,0,0,0-19.25,30.27L183,222a4.2,4.2,0,0,0-4.95,6.78l10.1,7.37c-6,15.69-9.93,35.29-6.41,57.08,3.9,24.11,18.61,44.92,39.19,56.14l.2.11a71.82,71.82,0,0,0,7.79,3.65A86,86,0,0,0,241,357l-7.49,26a4.2,4.2,0,1,0,8.07,2.32l7.72-26.83a97.83,97.83,0,0,0,13.27.88,115.15,115.15,0,0,0,18.31-1.52l9.22,39.39a4.2,4.2,0,0,0,4.09,3.24,4.64,4.64,0,0,0,1-.11,4.21,4.21,0,0,0,3.13-5.05l-9.17-39.15a52.53,52.53,0,0,0,26.83-17c.83-1,1.61-2,2.35-3.09l18.05,11.2a4.2,4.2,0,0,0,4.43-7.13L322.56,328.8a51.67,51.67,0,0,0,4.82-19.09A47.62,47.62,0,0,0,321,282.84l45.64-27.14a4.2,4.2,0,0,0-4.29-7.22L316.14,276c-.45-.53-.9-1.06-1.38-1.57a46,46,0,0,0-33.52-14.87h-.91a23.15,23.15,0,0,0-7.5,1.26c-.35.12-.73.26-1.13.42l-12-25.49a4.2,4.2,0,1,0-7.59,3.58L264.2,265c-7.09,4.61-14.49,13-13.2,27.46A23.14,23.14,0,0,0,256.76,306c4.32,4.72,14.07,11.18,30.78,1.38a4.2,4.2,0,1,0-4.24-7.24c-8.87,5.19-15.71,5.26-20.35.19a14.75,14.75,0,0,1-3.59-8.64c-1-11.83,5.85-18,12-21.2l.05,0a.6.6,0,0,0,.11-.06,31.53,31.53,0,0,1,4-1.7,14.76,14.76,0,0,1,4.78-.81h.8a37.66,37.66,0,0,1,27.45,12.2A39.2,39.2,0,0,1,319,309.18a42.8,42.8,0,0,1-5.55,18.91h0a42,42,0,0,1-4,5.72,44.64,44.64,0,0,1-26.18,15.08c-18.93,3.64-36.17,2.45-51.25-3.53-.84-.33-1.67-.69-2.49-1.06L240.88,330a4.2,4.2,0,0,0-6.59-5.21L222,340.33a70,70,0,0,1-32-48.4,93.51,93.51,0,0,1-.82-23.24L227,274.11c.21,0,.41,0,.6,0a4.2,4.2,0,0,0,.6-8.36l-37.85-5.43c5.7-33.26,26.4-56.43,26.65-56.7,38.75-41.67,116.94-22.86,120.44-22,27.3,8.92,48,23.93,62,44.79l-14,8.34a4.2,4.2,0,1,0,4.29,7.22l14.14-8.4a117.35,117.35,0,0,1,8.07,17.82,126.57,126.57,0,0,1,7.24,48.44c0,.06,0,.12,0,.18-1.35,27.89-9.36,52.72-23.78,73.88l-32.36-20.08a4.2,4.2,0,1,0-4.42,7.14l35.73,22.17.18.09.26.14.31.13.28.1.3.07.3.06.23,0,.36,0h.07a4.91,4.91,0,0,0,.77-.09l.18,0a3.64,3.64,0,0,0,.72-.26,1.36,1.36,0,0,0,.21-.1,3.92,3.92,0,0,0,.64-.42l.19-.15a4.22,4.22,0,0,0,.54-.58l.08-.09c16.79-23.17,26.08-50.59,27.59-81.51.17-1.94,1.9-24.82-7.59-51.62A121.11,121.11,0,0,0,409,226.06Z"/><path d="M308.33,230.35a4.19,4.19,0,0,0,4-2.82l8.7-25a4.2,4.2,0,0,0-7.94-2.76l-8.69,25a4.2,4.2,0,0,0,2.59,5.34A4.12,4.12,0,0,0,308.33,230.35Z"/><path d="M302.74,242.23a4.19,4.19,0,0,0-5.35,2.58l-2.05,5.9a4.21,4.21,0,0,0,2.59,5.35,4.12,4.12,0,0,0,1.38.23,4.2,4.2,0,0,0,4-2.82l2.05-5.9A4.19,4.19,0,0,0,302.74,242.23Z"/><text x="0" y="527" fill="#000000" font-size="5px" font-weight="bold" font-family="'Helvetica Neue', Helvetica, Arial-Unicode, Arial, Sans-serif">Created by Maxicons</text><text x="0" y="532" fill="#000000" font-size="5px" font-weight="bold" font-family="'Helvetica Neue', Helvetica, Arial-Unicode, Arial, Sans-serif">from the Noun Project</text></svg>